<svg width="16" height="16" viewBox="0 0 16 16" fill="none" xmlns="http://www.w3.org/2000/svg">
<path d="M0.791016 2.43659L6.07928 0.174683L10.6121 2.43659L15.3738 0.400119C15.4313 0.375527 15.494 0.365564 15.5562 0.371123C15.6185 0.376683 15.6785 0.39759 15.7307 0.43197C15.7829 0.466351 15.8257 0.513127 15.8553 0.568102C15.8849 0.623076 15.9004 0.684529 15.9003 0.746945V12.9921L10.6121 15.254L6.07928 12.9921L1.31758 15.0286C1.26009 15.0532 1.1974 15.0632 1.1351 15.0576C1.07281 15.052 1.01288 15.0311 0.960684 14.9968C0.908487 14.9624 0.86566 14.9156 0.836047 14.8606C0.806433 14.8057 0.79096 14.7442 0.791016 14.6818V2.43659ZM10.6121 13.5682V4.07722L10.563 4.09833L6.07928 1.86056V11.3515L6.12838 11.3304L10.6121 13.5682Z" fill="#2B2B2B"/>
</svg>
