<svg width="16" height="14" viewBox="0 0 16 14" fill="none" xmlns="http://www.w3.org/2000/svg">
<path d="M1.54648 0.134949H15.1449C15.3452 0.134949 15.5374 0.214384 15.6791 0.355781C15.8207 0.497177 15.9003 0.688952 15.9003 0.888917V12.9524C15.9003 13.1524 15.8207 13.3441 15.6791 13.4855C15.5374 13.6269 15.3452 13.7064 15.1449 13.7064H1.54648C1.34612 13.7064 1.15396 13.6269 1.01229 13.4855C0.870609 13.3441 0.791016 13.1524 0.791016 12.9524V0.888917C0.791016 0.688952 0.870609 0.497177 1.01229 0.355781C1.15396 0.214384 1.34612 0.134949 1.54648 0.134949V0.134949ZM8.391 6.68165L3.54696 2.5763L2.56863 3.72535L8.40083 8.66761L14.128 3.72158L13.1399 2.58082L8.39176 6.68165H8.391Z" fill="#2B2B2B"/>
</svg>
