<svg width="11" height="16" viewBox="0 0 11 16" fill="none" xmlns="http://www.w3.org/2000/svg">
<path d="M0.8129 0.587524H9.87849C10.0789 0.587524 10.271 0.66696 10.4127 0.808357C10.5544 0.949753 10.634 1.14153 10.634 1.34149V14.9129C10.634 15.1129 10.5544 15.3047 10.4127 15.4461C10.271 15.5875 10.0789 15.6669 9.87849 15.6669H0.8129C0.612538 15.6669 0.420382 15.5875 0.278705 15.4461C0.137028 15.3047 0.0574341 15.1129 0.0574341 14.9129V1.34149C0.0574341 1.14153 0.137028 0.949753 0.278705 0.808357C0.420382 0.66696 0.612538 0.587524 0.8129 0.587524ZM5.3457 11.897C5.14533 11.897 4.95318 11.9765 4.8115 12.1179C4.66982 12.2593 4.59023 12.4511 4.59023 12.651C4.59023 12.851 4.66982 13.0428 4.8115 13.1842C4.95318 13.3255 5.14533 13.405 5.3457 13.405C5.54606 13.405 5.73821 13.3255 5.87989 13.1842C6.02157 13.0428 6.10116 12.851 6.10116 12.651C6.10116 12.4511 6.02157 12.2593 5.87989 12.1179C5.73821 11.9765 5.54606 11.897 5.3457 11.897Z" fill="#2B2B2B"/>
</svg>
